<svg xmlns="http://www.w3.org/2000/svg" viewBox="0 0 1200 630" fill="none" role="img">
<rect width="1200" height="630" fill="#0B1B2B"/>
<g opacity=".3"><path d="M80 0V630" stroke="#1D3A55"/><path d="M170 0V630" stroke="#1D3A55"/><path d="M260 0V630" stroke="#1D3A55"/><path d="M350 0V630" stroke="#1D3A55"/><path d="M440 0V630" stroke="#1D3A55"/><path d="M530 0V630" stroke="#1D3A55"/><path d="M620 0V630" stroke="#1D3A55"/><path d="M710 0V630" stroke="#1D3A55"/><path d="M800 0V630" stroke="#1D3A55"/><path d="M890 0V630" stroke="#1D3A55"/><path d="M980 0V630" stroke="#1D3A55"/><path d="M1070 0V630" stroke="#1D3A55"/><path d="M1160 0V630" stroke="#1D3A55"/></g>
<rect x="80" y="88" width="64" height="64" rx="14" fill="#F4F6F5"/>
<path d="M96 104h32v10h-22v8h18v10h-18v8h24v10H96z" fill="#0B1B2B"/>
<rect x="80" y="220" width="820" height="26" rx="6" fill="#F4F6F5"/>
<rect x="80" y="266" width="640" height="26" rx="6" fill="#F4F6F5"/>
<rect x="80" y="312" width="420" height="26" rx="6" fill="#FF9E15"/>
<rect x="80" y="400" width="300" height="12" rx="6" fill="#7C8FA0"/>
<rect x="80" y="486" width="1040" height="1" fill="#1D3A55"/>
<rect x="80" y="520" width="220" height="12" rx="6" fill="#7C8FA0"/>
<circle cx="1090" cy="526" r="8" fill="#12B981"/>
</svg>