<?xml version="1.0" encoding="UTF-8"?>
<svg xmlns="http://www.w3.org/2000/svg" version="1.1" viewBox="0 0 9 9">
  <defs>
    <style>
      .cls-1 {
        fill: #ff8d00;
      }

      .cls-2 {
        fill: #ffb100;
      }

      .cls-3 {
        fill: #ffe800;
      }
    </style>
  </defs>
  <!-- Generator: Adobe Illustrator 28.7.1, SVG Export Plug-In . SVG Version: 1.2.0 Build 142)  -->
  <g>
    <g id="Layer_1">
      <polygon class="cls-1" points="7 4 7 3 6 3 6 2 5 2 5 0 4 0 4 1 3 1 3 3 2 3 2 5 1 5 1 6 2 6 2 7 3 7 3 8 4 8 5 8 6 8 6 7 7 7 7 6 8 6 8 4 7 4"/>
      <path class="cls-2" d="M5,4v1h1v1h1v-2h-1v-1h-1v-1h-1v1h-1v2h-1v1h2v-2h1Z"/>
      <rect class="cls-2" x="5" y="6" width="1" height="1"/>
      <path class="cls-1" d="M3,3h1v-1h1V0h-1v1h-1v2Z"/>
      <rect class="cls-1" x="6" width="1" height="1"/>
      <rect class="cls-1" x="1" y="1" width="1" height="1"/>
      <rect class="cls-1" x="5" y="2" width="1" height="1"/>
      <rect class="cls-1" x="7" y="2" width="1" height="1"/>
      <rect class="cls-1" x="2" y="3" width="1" height="2"/>
      <rect class="cls-1" x="6" y="3" width="1" height="1"/>
      <rect class="cls-1" x="7" y="4" width="1" height="2"/>
      <rect class="cls-1" x="1" y="5" width="1" height="1"/>
      <rect class="cls-1" x="2" y="6" width="1" height="1"/>
      <rect class="cls-1" x="6" y="6" width="1" height="1"/>
      <rect class="cls-1" x="3" y="7" width="1" height="1"/>
      <rect class="cls-1" x="5" y="7" width="1" height="1"/>
      <path class="cls-3" d="M4,6h-1v1h1v1h1v-2h1v-1h-1v-1h-1v2Z"/>
    </g>
  </g>
</svg>