<svg width="56" height="56" viewBox="0 0 56 56" fill="none" xmlns="http://www.w3.org/2000/svg">
<g clip-path="url(#clip0_1789_715)">
<path d="M33.6 0H22.4C10.0141 0 0 10.0141 0 22.4V33.6C0 43.0212 5.86353 51.1247 14.0988 54.4188C16.6682 55.4071 19.4353 56 22.4 56H33.6C37.5529 56 41.3082 54.9459 44.5365 53.1671C44.6024 53.1012 44.6682 53.1012 44.7341 53.0353C51.4541 49.1482 56 41.9012 56 33.6V22.4C56 10.0141 45.9859 0 33.6 0ZM54.6824 33.6C54.6824 40.6494 51.1906 46.9082 45.8541 50.7294V49.0824V46.5129H48.4235V43.9435H45.8541V41.3741H48.4235V38.8047H45.8541H44.1412V36.2353V33.6H41.5718V36.1694V38.7388H43.2847V41.3082V43.8776V46.4471H40.7153H38.1459V49.0165H40.7153H43.2847V51.5859V52.2447C40.3859 53.8259 37.0918 54.6824 33.6 54.6824H22.4C19.4353 54.6824 16.6682 54.0894 14.0988 52.9694V51.6518V49.0824H16.6682H19.2376V46.5129H16.6682H14.0988V43.9435V41.3741V38.8047H15.8118V36.2353V33.6H13.2424V36.1694V38.7388H11.5294H8.96V41.3082H11.5294V43.8776H8.96V46.4471H11.5294V49.0165V51.5859C5.40235 47.9624 1.31765 41.2424 1.31765 33.6V22.4C1.31765 10.8047 10.8047 1.31765 22.4 1.31765H33.6C45.1953 1.31765 54.6824 10.8047 54.6824 22.4V33.6ZM33.0071 36.1694H35.5765V38.7388V41.3082H33.0071V38.7388V36.1694ZM21.8071 36.1694H24.3765V38.7388V41.3082H21.8071V38.7388V36.1694ZM18.3812 33.6H15.8118V31.0306V28.4612V25.8918H18.3812V28.4612V31.0306V33.6ZM20.9506 25.8918H18.3812V23.3224H20.9506V25.8918ZM20.9506 28.4612V25.8918H23.52V28.4612H20.9506ZM41.5718 31.0306V33.6H39.0024V31.0306V28.4612V25.8918H41.5718V28.4612V31.0306ZM23.52 31.0306V28.4612H26.0894H28.6588H31.2282H33.7976V31.0306H31.2282H28.6588H26.0894H23.52ZM39.0024 25.8918H36.4329V23.3224H39.0024V25.8918ZM36.4329 28.4612H33.8635V25.8918H36.4329V28.4612Z" fill="url(#paint0_linear_1789_715)"/>
</g>
<defs>
<linearGradient id="paint0_linear_1789_715" x1="6.56215" y1="49.434" x2="49.4373" y2="6.55892" gradientUnits="userSpaceOnUse">
<stop stop-color="#E4B8BF"/>
<stop offset="1" stop-color="#CEC4EF"/>
</linearGradient>
<clipPath id="clip0_1789_715">
<rect width="56" height="56" fill="white"/>
</clipPath>
</defs>
</svg>
