<svg width="56" height="56" viewBox="0 0 56 56" fill="none" xmlns="http://www.w3.org/2000/svg">
<g clip-path="url(#clip0_1789_704)">
<path d="M28 0C2.912 0 0 16.9232 0 28.0112C0 39.0992 2.912 56.0112 28 56.0112C53.088 56.0112 56 39.0992 56 28.0112C56 16.9232 53.088 0 28 0Z" fill="white"/>
<mask id="mask0_1789_704" style="mask-type:luminance" maskUnits="userSpaceOnUse" x="0" y="0" width="56" height="57">
<path d="M28 0C2.912 0 0 16.9232 0 28.0112C0 39.0992 2.912 56.0112 28 56.0112C53.088 56.0112 56 39.0992 56 28.0112C56 16.9232 53.088 0 28 0Z" fill="white"/>
</mask>
<g mask="url(#mask0_1789_704)">
<path d="M32.6706 34.541H35.4706V40.141H32.6706V34.541ZM20.541 37.341V40.141H23.341V34.541H20.541V37.341ZM39.2114 20.541V23.341H36.4114V20.541H39.2114ZM33.6114 26.141H36.4114V23.341H33.6114V26.141ZM28.0114 26.141H22.4114V28.941H33.6114V26.141H28.0114ZM19.6114 23.341V26.141H22.4114V23.341H19.6114ZM16.8114 20.541V23.341H19.6114V20.541H16.8114ZM14.0114 26.141V31.741H16.8114V23.341H14.0114V26.141ZM11.2114 34.541V37.341H6.54102V40.141H9.34102V42.941H6.54102V45.741H9.34102V56.941H12.141V48.541H17.741V45.741H12.141V37.341H14.0114V31.741H11.2114V34.541ZM42.0114 26.141V23.341H39.2114V31.741H42.0114V26.141ZM49.4706 40.141V37.341H44.8002V31.741H42.0002V37.341H43.8706V45.741H38.2706V48.541H43.8706V56.941H46.6706V45.741H49.4706V42.941H46.6706V40.141H49.4706Z" fill="#131313"/>
</g>
</g>
<defs>
<clipPath id="clip0_1789_704">
<rect width="56" height="56" fill="white"/>
</clipPath>
</defs>
</svg>
