<svg width="56" height="56" viewBox="0 0 56 56" fill="none" xmlns="http://www.w3.org/2000/svg">
<g clip-path="url(#clip0_1789_692)">
<g clip-path="url(#clip1_1789_692)">
<path d="M56 28C56 39.081 53.081 56 28 56C2.919 56 0 39.081 0 28C0 16.919 2.919 0 28 0C53.081 0 56 16.919 56 28Z" fill="#9F8BE7"/>
<mask id="mask0_1789_692" style="mask-type:luminance" maskUnits="userSpaceOnUse" x="0" y="0" width="56" height="56">
<path d="M28 0C2.919 0 0 16.919 0 28C0 39.081 2.919 56 28 56C53.081 56 56 39.081 56 28C56 16.919 53.081 0 28 0Z" fill="white"/>
</mask>
<g mask="url(#mask0_1789_692)">
<path d="M33.6069 34.5301H34.5379C35.0559 34.5301 35.4689 34.9501 35.4689 35.4611V39.1921C35.4689 39.7101 35.0489 40.1231 34.5379 40.1231H33.6069C33.0889 40.1231 32.6759 39.7031 32.6759 39.1921V35.4611C32.6759 34.9431 33.0959 34.5301 33.6069 34.5301ZM20.5379 37.3301V39.1991C20.5379 39.7171 20.9579 40.1301 21.4689 40.1301H22.3999C22.9179 40.1301 23.3309 39.7101 23.3309 39.1991V35.4681C23.3309 34.9501 22.9109 34.5371 22.3999 34.5371H21.4689C20.9509 34.5371 20.5379 34.9571 20.5379 35.4681V37.3371V37.3301ZM39.2069 21.4681V22.3991C39.2069 22.9171 38.7869 23.3301 38.2759 23.3301H37.3449C36.8269 23.3301 36.4139 22.9101 36.4139 22.3991V21.4681C36.4139 20.9501 36.8339 20.5371 37.3449 20.5371H38.2759C38.7939 20.5371 39.2069 20.9571 39.2069 21.4681ZM34.5379 26.1301H35.4689C35.9869 26.1301 36.3999 25.7101 36.3999 25.1991V24.2681C36.3999 23.7501 35.9799 23.3371 35.4689 23.3371H34.5379C34.0199 23.3371 33.6069 23.7571 33.6069 24.2681V25.1991C33.6069 25.7171 34.0269 26.1301 34.5379 26.1301ZM28.0069 26.1301H23.3379C22.8199 26.1301 22.4069 26.5501 22.4069 27.0611V27.9921C22.4069 28.5101 22.8269 28.9231 23.3379 28.9231H32.6689C33.1869 28.9231 33.5999 28.5031 33.5999 27.9921V27.0611C33.5999 26.5431 33.1799 26.1301 32.6689 26.1301H27.9999H28.0069ZM19.6069 24.2681V25.1991C19.6069 25.7171 20.0269 26.1301 20.5379 26.1301H21.4689C21.9869 26.1301 22.3999 25.7101 22.3999 25.1991V24.2681C22.3999 23.7501 21.9799 23.3371 21.4689 23.3371H20.5379C20.0199 23.3371 19.6069 23.7571 19.6069 24.2681ZM16.8069 21.4681V22.3991C16.8069 22.9171 17.2269 23.3301 17.7379 23.3301H18.6689C19.1869 23.3301 19.5999 22.9101 19.5999 22.3991V21.4681C19.5999 20.9501 19.1799 20.5371 18.6689 20.5371H17.7379C17.2199 20.5371 16.8069 20.9571 16.8069 21.4681ZM14.0069 26.1301V30.7991C14.0069 31.3171 14.4269 31.7301 14.9379 31.7301H15.8689C16.3869 31.7301 16.7999 31.3101 16.7999 30.7991V24.2681C16.7999 23.7501 16.3799 23.3371 15.8689 23.3371H14.9379C14.4199 23.3371 14.0069 23.7571 14.0069 24.2681V26.1371V26.1301ZM11.2069 34.5301V36.3991C11.2069 36.9171 10.7869 37.3301 10.2759 37.3301H7.47592C6.95792 37.3301 6.54492 37.7501 6.54492 38.2611V39.1921C6.54492 39.7101 6.96492 40.1231 7.47592 40.1231H8.40692C8.92492 40.1231 9.33792 40.5431 9.33792 41.0541V41.9851C9.33792 42.5031 8.91792 42.9161 8.40692 42.9161H7.47592C6.95792 42.9161 6.54492 43.3361 6.54492 43.8471V44.7781C6.54492 45.2961 6.96492 45.7091 7.47592 45.7091H8.40692C8.92492 45.7091 9.33792 46.1291 9.33792 46.6401V55.9711C9.33792 56.4891 9.75792 56.9021 10.2689 56.9021H11.1999C11.7179 56.9021 12.1309 56.4821 12.1309 55.9711V49.4401C12.1309 48.9221 12.5509 48.5091 13.0619 48.5091H16.7929C17.3109 48.5091 17.7239 48.0891 17.7239 47.5781V46.6471C17.7239 46.1291 17.3039 45.7161 16.7929 45.7161H13.0619C12.5439 45.7161 12.1309 45.2961 12.1309 44.7851V38.2541C12.1309 37.7361 12.5509 37.3231 13.0619 37.3231C13.5799 37.3231 13.9929 36.9031 13.9929 36.3921V32.6611C13.9929 32.1431 13.5729 31.7301 13.0619 31.7301H12.1309C11.6129 31.7301 11.1999 32.1501 11.1999 32.6611V34.5301H11.2069ZM42.0069 26.1301V24.2611C42.0069 23.7431 41.5869 23.3301 41.0759 23.3301H40.1449C39.6269 23.3301 39.2139 23.7501 39.2139 24.2611V30.7921C39.2139 31.3101 39.6339 31.7231 40.1449 31.7231H41.0759C41.5939 31.7231 42.0069 31.3031 42.0069 30.7921V26.1231V26.1301ZM49.4689 39.1991V38.2681C49.4689 37.7501 49.0489 37.3371 48.5379 37.3371H45.7379C45.2199 37.3371 44.8069 36.9171 44.8069 36.4061V32.6751C44.8069 32.1571 44.3869 31.7441 43.8759 31.7441H42.9449C42.4269 31.7441 42.0139 32.1641 42.0139 32.6751V36.4061C42.0139 36.9241 42.4339 37.3371 42.9449 37.3371C43.4629 37.3371 43.8759 37.7571 43.8759 38.2681V44.7991C43.8759 45.3171 43.4559 45.7301 42.9449 45.7301H39.2139C38.6959 45.7301 38.2829 46.1501 38.2829 46.6611V47.5921C38.2829 48.1101 38.7029 48.5231 39.2139 48.5231H42.9449C43.4629 48.5231 43.8759 48.9431 43.8759 49.4541V55.9851C43.8759 56.5031 44.2959 56.9161 44.8069 56.9161H45.7379C46.2559 56.9161 46.6689 56.4961 46.6689 55.9851V46.6541C46.6689 46.1361 47.0889 45.7231 47.5999 45.7231H48.5309C49.0489 45.7231 49.4619 45.3031 49.4619 44.7921V43.8611C49.4619 43.3431 49.0419 42.9301 48.5309 42.9301H47.5999C47.0819 42.9301 46.6689 42.5101 46.6689 41.9991V41.0681C46.6689 40.5501 47.0889 40.1371 47.5999 40.1371H48.5309C49.0489 40.1371 49.4619 39.7171 49.4619 39.2061L49.4689 39.1991Z" fill="#DDF160"/>
</g>
</g>
</g>
<defs>
<clipPath id="clip0_1789_692">
<rect width="56" height="56" fill="white"/>
</clipPath>
<clipPath id="clip1_1789_692">
<rect width="56" height="56" fill="white"/>
</clipPath>
</defs>
</svg>
