<?xml version="1.0" encoding="UTF-8"?>
<svg xmlns="http://www.w3.org/2000/svg" version="1.1" viewBox="0 0 50 40">
  <defs>
    <style>
      .cls-1 {
        fill: #300;
      }

      .cls-2 {
        fill: #ff9a00;
      }
    </style>
  </defs>
  <!-- Generator: Adobe Illustrator 28.7.1, SVG Export Plug-In . SVG Version: 1.2.0 Build 142)  -->
  <g>
    <g id="Layer_1">
      <g>
        <path class="cls-1" d="M11.7,0h26.5c4,0,7.3,3.2,7.3,7.3v25.5c0,4-3.2,7.3-7.3,7.3H11.7c-4,0-7.3-3.2-7.3-7.3V7.3c0-4,3.2-7.3,7.3-7.3Z"/>
        <path class="cls-2" d="M24.3,23.9h-6.4l-1.3,4c0,.1-.2.3-.3.2h-3.2c-.2,0-.2,0-.2-.3l5.5-15.9c0-.2,0-.4.2-.6,0-.4,0-.8,0-1.1s0-.2.1-.2h4.4c.1,0,.2,0,.2.1l6.2,17.6c0,.2,0,.3-.2.3h-3.6c-.1,0-.2,0-.3-.2l-1.5-4ZM18.9,20.5h4.4c0-.4-.2-.8-.4-1.2-.1-.4-.3-1-.4-1.5-.2-.5-.3-1-.5-1.6-.2-.5-.3-1-.4-1.5-.1-.5-.3-.9-.4-1.3h0c-.1.8-.4,1.5-.6,2.2-.3.8-.5,1.7-.8,2.5-.3.8-.6,1.6-.8,2.4h0ZM33.5,13.2c-.6,0-1.1-.2-1.5-.6-.4-.4-.6-1-.6-1.6s.2-1.1.6-1.5,1-.6,1.5-.6,1.2.2,1.6.6c.4.4.6,1,.6,1.5s-.2,1.2-.6,1.6c-.4.4-1,.6-1.6.6h0ZM31.6,28v-13.2c0-.2,0-.2.2-.2h3.4c.1,0,.2,0,.2.2v13.2c0,.2,0,.3-.2.3h-3.3c-.2,0-.3,0-.3-.3Z"/>
      </g>
    </g>
  </g>
</svg>