<?xml version="1.0" encoding="UTF-8"?>
<svg xmlns="http://www.w3.org/2000/svg" version="1.1" viewBox="0 0 50 40">
  <defs>
    <style>
      .cls-1 {
        fill: #b2afbb;
      }
    </style>
  </defs>
  <!-- Generator: Adobe Illustrator 28.7.1, SVG Export Plug-In . SVG Version: 1.2.0 Build 142)  -->
  <g>
    <g id="Layer_1">
      <path class="cls-1" d="M10.6,0h12.5c5.4,0,6,4.3,5.6,6.2-1.7,8.5-5.2,25.9-5.4,27-.2.7.2.9.5.1,3.3-9.4,10-28.4,10.5-29.7.7-2,3.4-4.3,7.1-3.5,2.9.7,3.7,3.8,3.7,5.3v29.5c0,2.1-2.3,6-7.1,4.7-4.8-1.3-4.4-5.8-3.6-8,2.8-6.4,8.4-19.5,8.9-20.6.3-.6,0-.7-.4-.2-4.8,7-14.9,21.8-16.9,24.7s-4.4,3.7-5.9,3.7c-11.5,0-14.9-11.2-14.9-16.8V5.8C5,1.2,8.7,0,10.6,0Z"/>
    </g>
  </g>
</svg>