<?xml version="1.0" encoding="UTF-8"?>
<svg xmlns="http://www.w3.org/2000/svg" version="1.1" viewBox="0 0 50 40">
  <defs>
    <style>
      .cls-1 {
        fill: #265787;
      }

      .cls-2 {
        fill: #ea7600;
      }
    </style>
  </defs>
  <!-- Generator: Adobe Illustrator 28.7.1, SVG Export Plug-In . SVG Version: 1.2.0 Build 142)  -->
  <g>
    <g id="Layer_1">
      <path class="cls-1" d="M26.1,22.5c.1-1.7,1-3.1,2.2-4.1s2.9-1.7,4.6-1.7,3.4.6,4.6,1.7,2,2.5,2.2,4.1-.6,3.2-1.8,4.4-3,1.9-4.9,1.9-3.7-.7-4.9-1.9c-1.2-1.1-1.9-2.7-1.8-4.4Z"/>
      <path class="cls-2" d="M15.4,25.8c0,.6.2,1.9.5,2.8.6,2,1.8,4,3.4,5.7,1.6,1.8,3.5,3.1,5.8,4.1,2.4,1.1,4.9,1.5,7.6,1.5s5.3-.6,7.6-1.5c2.3-.9,4.2-2.4,5.8-4.1,1.6-1.7,2.7-3.5,3.4-5.7.4-1.1.5-2.1.6-3.2s0-2.1-.1-3.2c-.2-2-1-3.9-2.2-5.7-1-1.7-2.3-3-3.9-4.1h0L28.1.6h0c-1.1-.8-2.8-.8-3.9,0s-1.3,2.1-.2,3h0l6.5,5.2H10.7c-1.7,0-3.3,1.1-3.5,2.4-.4,1.4.8,2.5,2.5,2.5h10.1L1.9,27.2h-.1c-1.7,1.3-2.3,3.4-1.2,4.7,1.1,1.4,3.4,1.4,5.1,0l9.9-7.9c0,.1-.2,1.2-.1,1.8ZM40.6,29.4c-2,2-4.8,3.2-8,3.2s-5.9-1.2-8-3.2c-1-.9-1.7-2.1-2.2-3.3-.5-1.2-.6-2.5-.5-3.7s.5-2.5,1.1-3.5,1.4-2,2.4-2.8c1.9-1.5,4.5-2.5,7.1-2.5s5.2.8,7.1,2.4c1,.8,1.8,1.8,2.4,2.8s1,2.2,1.1,3.5c.1,1.3,0,2.5-.5,3.7-.5,1.3-1.2,2.5-2.2,3.4Z"/>
    </g>
  </g>
</svg>