<?xml version="1.0" encoding="UTF-8"?>
<svg xmlns="http://www.w3.org/2000/svg" version="1.1" viewBox="0 0 50 40">
  <defs>
    <style>
      .cls-1 {
        fill: #001e36;
      }

      .cls-2 {
        fill: #31a8ff;
      }
    </style>
  </defs>
  <!-- Generator: Adobe Illustrator 28.7.1, SVG Export Plug-In . SVG Version: 1.2.0 Build 142)  -->
  <g>
    <g id="Layer_1">
      <g>
        <path class="cls-1" d="M11.7,0h26.5c4,0,7.3,3.2,7.3,7.3v25.5c0,4-3.2,7.3-7.3,7.3H11.7c-4,0-7.3-3.2-7.3-7.3V7.3c0-4,3.2-7.3,7.3-7.3Z"/>
        <path class="cls-2" d="M13.7,28.1V10.5c0-.1,0-.2.2-.2h1c.4,0,.8,0,1.3,0,.4,0,1,0,1.5,0h1.6c1.4,0,2.6.2,3.5.5.8.3,1.6.8,2.3,1.4s1,1.2,1.2,2c.3.7.4,1.5.4,2.2,0,1.5-.4,2.7-1,3.6s-1.6,1.7-2.8,2.1c-1.2.4-2.4.6-3.9.6h-1.6v5.5c0,.1,0,.2-.2.2h-3.3c0,0-.2,0-.2-.3h0ZM17.4,13.6v5.7c.2,0,.4,0,.7,0h.9c.7,0,1.3,0,2-.3.5-.1,1-.5,1.4-.9.4-.4.5-1,.5-1.8s-.1-1.1-.4-1.5c-.3-.4-.7-.8-1.2-1-.6-.3-1.3-.4-2-.4h-1.2c-.4,0-.6,0-.7,0h0ZM37.3,18.3c-.5-.3-1.1-.4-1.6-.6-.6-.1-1.2-.2-1.9-.2s-.7,0-1,.1c-.2,0-.4.2-.5.4,0,.1-.1.3-.1.4s0,.3.2.4c.1.2.4.4.6.4.4.2.8.4,1.2.6.9.3,1.8.8,2.6,1.2.6.4,1,.8,1.3,1.4.3.5.4,1.2.4,1.8s-.2,1.6-.7,2.3c-.5.7-1.2,1.2-1.9,1.5-.8.4-1.9.5-3.1.5s-1.6,0-2.3-.2c-.6,0-1.2-.3-1.7-.5-.1,0-.2-.2-.2-.3v-3s0-.1,0-.1c0,0,0,0,.1,0,.7.4,1.4.7,2.1.8.7.2,1.3.3,2,.3s1.1,0,1.4-.2c.3-.1.4-.4.4-.7s-.1-.4-.4-.7-.8-.5-1.7-.8c-.9-.3-1.7-.7-2.4-1.2-.5-.4-1-.9-1.3-1.5-.3-.5-.4-1.2-.4-1.7s.2-1.4.6-2.1c.4-.7,1.1-1.2,1.8-1.6.8-.4,1.8-.6,3-.6s1.4,0,2.1.1c.5,0,1,.2,1.5.4,0,0,.1,0,.2.1,0,0,0,.1,0,.2v2.8c0,0,0,.1,0,.2-.1,0-.2,0-.3,0h0Z"/>
      </g>
    </g>
  </g>
</svg>