<?xml version="1.0" encoding="UTF-8"?>
<svg xmlns="http://www.w3.org/2000/svg" version="1.1" viewBox="0 0 50 40">
  <defs>
    <style>
      .cls-1 {
        fill: #dbd8d8;
        fill-rule: evenodd;
      }
    </style>
  </defs>
  <!-- Generator: Adobe Illustrator 28.7.1, SVG Export Plug-In . SVG Version: 1.2.0 Build 142)  -->
  <g>
    <g id="Layer_1">
      <path class="cls-1" d="M41,40H9c-2.2,0-4-1.8-4-4V4C5,1.8,6.8,0,9,0h32C43.2,0,45,1.8,45,4v32c0,2.2-1.8,4-4,4Z"/>
      <path d="M40.9,32.8c-.7,0-1.2-.4-1.7-.9-.6-.5-1.3-1.1-2.3-1.1s-1.7.6-2.3,1.1c-.6.5-1.1.9-1.7.9s-.8-.2-1.1-.4c3-1.5,5.4-3,7.3-4.7.1-.1.2-.3.1-.5,0-.2-.2-.3-.4-.3l-27.6,1.8c-.1,0-.3,0-.3.2,0,.1,0,.3,0,.4l.9,1.7c-.5.3-.9.6-1.3.9-.5.4-1,.8-1.3.8s-.4.2-.4.4.2.4.4.4c.6,0,1.2-.5,1.8-1,.4-.3.9-.7,1.4-1,0,0,.1,0,.2,0,0,0,0,0,.1,0,.2,0,.3-.1.5-.2.2,0,.5.3.8.6.7.6,1.5,1.5,3.1,1.6,0,0,0,0,0,0,1,0,1.7-.6,2.3-1.1.6-.5,1.1-.9,1.7-.9s1.2.4,1.7.9c.6.5,1.3,1.1,2.3,1.1s1.7-.6,2.3-1.1c.6-.5,1.1-.9,1.7-.9s1.2.4,1.7.9c0,0,0,0,0,0,0,0,0,.1.2.1.6.5,1.2.9,2.1.9s1.7-.6,2.3-1.1c.6-.5,1.1-.9,1.7-.9s1.2.4,1.7.9c.6.5,1.3,1.1,2.3,1.1s.4-.2.4-.4-.2-.4-.4-.4ZM26.7,31.9c-.6.5-1.1.9-1.7.9s-1.2-.4-1.7-.9c-.6-.5-1.3-1.1-2.3-1.1s-1.7.6-2.3,1.1c-.6.5-1,.9-1.7.9-1.2-.2-2-.9-2.6-1.4-.5-.4-.9-.8-1.4-.8s0,0,0,0c-.2,0-.4,0-.5.1l-.6-1.1,25.7-1.7c-1.7,1.4-3.8,2.6-6.5,3.9-.6-.5-1.2-1-2.1-1s-1.7.6-2.3,1.1ZM22,10.4c4.4,3,7.6,8.1,9.5,15.1,0,.2.3.4.5.3,1.4-.4,2.2,0,3.3.4.1,0,.2,0,.4.1,0,0,.1,0,.2,0,.1,0,.2,0,.3-.1.1-.1.2-.3.1-.4-1.1-3.5-3.2-7.2-5.9-10.3-2.6-2.9-5.5-5.1-7.9-5.8-.2,0-.4,0-.5.2s0,.4.1.5ZM35,25.2c-.6-.2-1.2-.4-1.9-.4s-.6,0-1,0c-.9-3.1-2.1-6-3.5-8.4-1-1.7-2.1-3.2-3.4-4.4,3.8,2.6,7.9,7.6,9.8,13.1ZM13.4,27.5c0,0,.2,0,.2,0,4.7-2.9,9.9-3.2,15.5-.9.1,0,.3,0,.4,0s.2-.2.2-.4c-.7-4.4-2.9-8.7-6.3-12.5-2.8-3.1-6.4-5.7-9.7-7.1-.2,0-.4,0-.5.1-.1.1-.1.3,0,.5,2,3.4,6,12,0,19.8-.1.2-.1.4,0,.5,0,0,.2.1.3.1ZM17.1,16.1c-.3-3.3-1.4-6.2-2.6-8.4,5.3,2.7,12.5,9,14.2,17.7-3-1.1-5.9-1.5-8.7-1.2-1.8.2-3.6.7-5.3,1.6,1.8-2.9,2.6-6.2,2.3-9.7Z"/>
    </g>
  </g>
</svg>