<?xml version="1.0" encoding="UTF-8"?>
<svg xmlns="http://www.w3.org/2000/svg" version="1.1" viewBox="0 0 50 40">
  <defs>
    <style>
      .cls-1 {
        fill: #fff;
      }
    </style>
  </defs>
  <!-- Generator: Adobe Illustrator 28.7.1, SVG Export Plug-In . SVG Version: 1.2.0 Build 142)  -->
  <g>
    <g id="Layer_1">
      <g>
        <path class="cls-1" d="M8.4,2L30.3.4c2.7-.2,3.4,0,5.1,1.2l7,4.9c1.2.8,1.6,1.1,1.6,2v27c0,1.7-.6,2.7-2.8,2.8l-25.4,1.6c-1.6,0-2.4-.1-3.2-1.2l-5.2-6.7c-.9-1.2-1.3-2.1-1.3-3.2V4.6c0-1.4.6-2.5,2.4-2.7Z"/>
        <path d="M30.4,0L8.3,1.7c-1.8.1-2.4,1.3-2.4,2.7v24.3c0,1.1.4,2,1.3,3.2l5.2,6.8c.8,1.1,1.6,1.3,3.2,1.2l25.7-1.6c2.2-.1,2.8-1.2,2.8-2.9V8.3c0-.9-.4-1.2-1.4-1.9,0,0-.1,0-.2-.1l-7.1-5C33.8,0,33.1-.1,30.4,0ZM16.2,7.8c-2.1.1-2.6.2-3.8-.8l-3-2.4c-.3-.3-.1-.7.6-.8l21.3-1.6c1.8-.2,2.7.4,3.4,1l3.6,2.6c.2,0,.5.5,0,.5l-22,1.3h-.3ZM13.8,35.4V12.1c0-1,.3-1.5,1.2-1.6l25.3-1.5c.8,0,1.2.4,1.2,1.5v23c0,1-.2,1.9-1.6,2l-24.1,1.4c-1.4,0-2-.4-2-1.6ZM37.6,13.4c.1.7,0,1.4-.7,1.5l-1.2.3v17.1c-1,.5-2,.8-2.7.8-1.2,0-1.6-.4-2.5-1.6l-7.6-12v11.6l2.4.5s0,1.4-2,1.4l-5.4.3c-.2-.3,0-1.1.5-1.2l1.4-.4v-15.3l-2-.2c-.2-.7.2-1.7,1.3-1.8l5.7-.4,8,12.1v-10.7l-2-.2c-.2-.8.4-1.5,1.2-1.6l5.3-.4h0Z"/>
      </g>
    </g>
  </g>
</svg>