<?xml version="1.0" encoding="UTF-8"?>
<svg xmlns="http://www.w3.org/2000/svg" version="1.1" viewBox="0 0 50 40">
  <defs>
    <style>
      .cls-1 {
        fill: #ea6c00;
      }

      .cls-1, .cls-2, .cls-3, .cls-4 {
        fill-rule: evenodd;
      }

      .cls-2 {
        fill: #fdd231;
      }

      .cls-3 {
        fill: #fdad00;
      }

      .cls-4 {
        fill: #feeeb7;
      }
    </style>
  </defs>
  <!-- Generator: Adobe Illustrator 28.7.1, SVG Export Plug-In . SVG Version: 1.2.0 Build 142)  -->
  <g>
    <g id="Layer_1">
      <g>
        <polygon class="cls-4" points="37.4 1.3 25 0 12.6 1.3 2.9 14.3 25 40 47.1 14.3 37.4 1.3"/>
        <path class="cls-1" d="M11.8,14.3l13.2,25.7L2.9,14.3h8.9Z"/>
        <path class="cls-1" d="M38.2,14.3l-13.2,25.7,22.1-25.7h-8.9Z"/>
        <path class="cls-3" d="M11.8,14.3h26.3l-13.2,25.7L11.8,14.3Z"/>
        <path class="cls-2" d="M25,0l-12.4,1.3-.7,12.9L25,0Z"/>
        <path class="cls-2" d="M25,0l12.4,1.3.7,12.9L25,0Z"/>
        <path class="cls-3" d="M47.1,14.3L37.4,1.3l.7,12.9h8.9Z"/>
        <path class="cls-3" d="M2.9,14.3L12.6,1.3l-.7,12.9H2.9Z"/>
        <path class="cls-4" d="M25,0l-13.2,14.3h26.3L25,0Z"/>
      </g>
    </g>
  </g>
</svg>