<?xml version="1.0" encoding="UTF-8"?>
<svg xmlns="http://www.w3.org/2000/svg" version="1.1" viewBox="0 0 370.3 66.7">
  <defs>
    <style>
      .cls-1 {
        fill: #fff;
      }
    </style>
  </defs>
  <!-- Generator: Adobe Illustrator 28.7.1, SVG Export Plug-In . SVG Version: 1.2.0 Build 142)  -->
  <g>
    <g id="Layer_1">
      <path class="cls-1" d="M24.4,43.8c-.6.3-1,.2-1.3-.1-.3-.4-.2-.7.3-1.1,2.7-2,4.1-3.7,4.2-5.2,0-1-.4-2.1-1.3-3.4s-2.6-3.1-5-5.2c-4.9-4.4-7.3-8.1-7.2-11,0-2.7,2-5.3,6-7.8.1,0,.7-.4,1.7-1,1-.6,1.7-1.1,2.2-1.4.2-.2.3-.4.2-.6-.7-3.2-2.7-4.8-6-4.8s-5.9,2.1-7.5,6.2c-1.7,4.2-2.2,8.7-1.8,13.6.8,8.6,3.6,15,8.3,19.3,4.7,4.3,10,6.5,16.1,6.5s6.8-.9,10.5-2.7c.5-.3.9-.2,1.2.2.3.4.1.8-.4,1.2-5.6,4.4-12,6.6-19.2,6.6s-13.1-2.8-17.8-8.5C3,39,.4,33.5,0,28.1c-.5-7.8,1-14.5,4.5-19.9C8,2.7,12.4,0,17.7,0s3.9.5,5.2,1.6,2.2,2.4,2.7,3.9c.2.5.5.6.9.3,2.1-1.5,4-3.2,5.7-5,.8-.6,1.7-.6,2.7,0,1,.5,1.9,1,2.8,1.4.8.4,1.7,1,2.8,1.6s2.3.6,3.6.1c.5-.3.9-.3,1.2,0,.3.3.3.6,0,.9-1.2,1.2-2.3,2.2-3.3,3.1-1,.9-2,1.8-3,2.7-.2.2-.4.4-.5.4,0,0-.2,0-.4,0s-.4,0-.7-.2-.5-.3-.6-.4c-4.1-2-6.9-3-8.4-3-1.1,0-2.3.5-3.4,1.4-1.9,1.5-2.9,3-2.9,4.4,0,1.8,1.4,4,4.3,6.6,6.1,5.3,9.4,9.6,9.7,12.7.2,3-3.6,6.7-11.6,11ZM48.9,6c-.3-.3-.3-.6,0-.9.3-.3.7-.2,1.1.2.5.7,1.1,1.4,1.7,2.1.6.8,1.1,1.5,1.5,2.3.1.2.3.4.5.4s.4,0,.5-.3c1.4-2.3,3.3-4.2,5.7-5.7,2.5-1.4,5.1-2.1,8-2,.5,0,.8.3.8.7,0,.4-.3.7-.8.7-2.3,0-4.2.7-5.6,2-1.4,1.3-2.1,3.8-2.1,7.3v30.4c0,.8.1,1.2.5,1.4l2.5,1.4c.6.2,1.4-.4,2.4-1.7.3-.4.6-.4.9-.2.4.2.4.5,0,.9-2.5,2.7-4.3,5.4-5.7,8.1-.3.5-.7.5-1.3,0-1.1-1.5-2.3-2.6-3.5-3.5s-2.9-1.5-5.1-2c-.4,0-.6-.2-.6-.5,0-.3.1-.5.4-.6.6-.2,1.1-.6,1.6-1.2.5-.6.7-1.5.7-2.9v-23.6c0-3.4-.4-6-1.1-8-.7-1.9-1.7-3.6-3.1-4.9ZM72.5,44l-.2-19.3c0-.4,0-.8-.2-1.1-.6-.9-1-1.1-1.4-.7l-1.4,1.4c-.4.4-.7.5-1.1.1-.3-.3-.3-.8.2-1.4,1-1.3,2-2.6,2.8-3.9.8-1.3,1.7-2.6,2.5-3.8.4-.4.8-.4,1.3,0,1,1.2,1.9,2.2,2.9,3.1.9.9,2.3,1.9,4,2.9.5.2.7.4.7.7,0,.3-.2.4-.5.4-.6.2-1.1.6-1.6,1.2-.5.6-.7,1.5-.7,2.9v14.9c0,2.4.4,3.9,1.3,4.4,1,.6,1.9.4,2.5-.8.2-.4.5-.5.9-.3.3.2.3.7,0,1.2-.7,1.1-1.4,2.2-2,3.3-.6,1.1-1.2,2.2-1.9,3.3-.4.7-1,.8-1.7.4-2.1-1-3.7-2.2-4.8-3.7-1.1-1.5-1.6-3.3-1.6-5.5ZM77.6,2.2c2.6,0,3.8,1.3,3.6,3.8-.1,1.3-.9,2.5-2.4,3.8s-2.6,1.9-3.4,1.9c-.8,0-1.5-.7-1.9-2-.4-1.3-.6-2.6-.5-3.7,0-1.1.6-2,1.6-2.7,1-.7,2-1.1,3.1-1.1ZM98.3,53.2c0-.6-.3-1-.9-1.3-.6-.3-1-.6-1.4-.8-2.7-1.8-4.6-4.1-5.7-6.7-1.1-2.6-1.7-5.4-1.9-8.4-.3-6.7,1.5-11.8,5.4-15.3,1.4-1.2,3-2.3,4.8-3,1.8-.8,3.7-1.4,5.6-1.9.6-.1,1,.2,1.3.9l5.1,11.9c.2.6.2,1-.2,1.2h0l-14.4,5.6c-.3.1-.4.4-.4.7,1.1,5.2,3.1,8.5,5.8,10,2.7,1.5,5.4,1.7,8.1.7.5-.2.8-.2.9.1.1.3,0,.5-.3.6-1.9,1-3.7,1.9-5.4,3s-3.3,2.1-4.6,3.2c-.2.1-.5.2-.9.1-.4,0-.6-.2-.6-.5ZM95,33.4c0,.2.1.3.2.4s.3.1.5,0l7.5-2.8c.4-.1.5-.4.3-.7l-4.3-10.5c-.2-.5-.6-.6-1.3-.2-1.4.8-2.3,2.6-2.8,5.4s-.6,5.6-.2,8.4ZM126.4,39.6c0,3.8.7,6,2.1,6.5.2.1.2.3.2.5s0,.3-.2.4c-2.1,1.6-3.8,3.7-5.1,6.4-.1.2-.3.3-.5.3s-.4,0-.5-.3c-1.3-2.6-3.1-4.8-5.3-6.3-.1,0-.2-.2-.2-.5s0-.4.2-.5c1.5-.6,2.3-2.8,2.3-6.5v-11.7c0-2.4-.4-3.9-1.3-4.4-1-.7-1.9-.4-2.5.7-.3.5-.6.6-.9.4-.3-.3-.3-.7,0-1.2.7-1.1,1.3-2.2,2-3.3.6-1.1,1.3-2.2,1.9-3.4.4-.7.9-.8,1.6-.4h0c3.4,1.8,5.5,3.9,6.2,6.4,0,.3.2.4.4.5.2,0,.4,0,.6-.1,1.3-1.1,2.6-2.2,4-3.4,1.4-1.2,2.3-2.3,2.8-3.3.3-.6.7-.6,1.3,0,1.4,1.5,2.6,2.6,3.6,3.5,1,.9,2.7,1.5,5.1,1.9.4,0,.6.3.7.5s-.1.5-.4.5c-.6.2-1.1.6-1.6,1.2s-.7,1.5-.7,2.9v14.9c0,2.4.4,3.9,1.3,4.4,1,.6,1.9.4,2.5-.8.3-.4.6-.5.9-.3s.3.7,0,1.2c-.7,1.1-1.4,2.2-2,3.3s-1.2,2.2-1.9,3.3c-.4.7-.9.8-1.6.5-4.2-2.1-6.4-5.1-6.4-9.2v-18c0-.7-.1-1.2-.5-1.4h0c0,0-3-2.5-3-2.5-.3-.2-.5-.2-.8,0l-3.7,2.8c-.2.1-.2.3-.2.4v14ZM162.1,23.6v19.7c0,.7.1,1.2.5,1.4l2.5,1.4c.5.4,1.3-.1,2.5-1.7.2-.3.5-.4.9-.1s.4.5,0,.8c-2.5,2.7-4.4,5.4-5.7,8.1-.4.5-.8.5-1.3,0-1.3-1.5-2.5-2.7-3.7-3.5s-2.8-1.4-5-2c-.4,0-.6-.2-.6-.5s.1-.5.4-.6c1.6-.4,2.3-1.7,2.3-4v-19c0-.4-.2-.6-.6-.6h-4.1c-.3,0-.5-.1-.6-.4s0-.5.3-.7c2.8-2,5.7-4.4,8.6-7.2s5.6-5.5,8-8c.3-.3.6-.4.9-.2s.3.5,0,.9c-1.1,1.3-2.2,3.1-3.3,5.2s-1.8,4.1-2,5.8c0,.2,0,.4,0,.5.1.1.3.2.5.2h6.1c.2,0,.3,0,.4.2.1.2.2.3.2.5v2.6c-.2.4-.4.6-.7.6h-6.1c-.3,0-.5.2-.5.6ZM173.6,6.4c1.8-1.2,3.4-2.7,4.6-4.6.4-.6.7-.6,1,0,1.1,2.1,2.6,3.6,4.6,4.6.2,0,.3.3.3.5,0,2-.7,4.3-2.1,6.9s-2.7,4.8-4,6.5c-.2.2-.4.3-.7.2-.4-.2-.5-.4-.3-.7,1.4-2.2,2-4.4,1.7-6.7s-2-4.2-5.2-5.7c-.6-.2-.6-.6,0-1ZM200.3,8.7c3.3-.9,6.3-.7,9,.6,1.9.9,3.3,2.1,4.3,3.7s1.4,3.3,1.2,5.3-.8,3.4-1.9,4.3-1.9,1.7-2.6,2.2-1.3,1.1-1.9,1.6c-1.2,1.1-1.3,2.1-.3,3,3.2,2.7,5,5.1,5.5,6.9s.1,3.5-1,5c-1.6,2-3.3,3.8-5.1,5.6s-3.6,3.6-5.3,5.4c-.9.8-1.4.8-1.6-.1-.3-1.3-1.7-2.4-4.1-3.4s-5-1.9-7.8-2.8c-.5-.2-.5-.5-.1-1.1.6-.7,1.3-1.3,2-2s1.4-1.3,2-1.9c1.1-1,1.4-1.9,1.1-2.6s-1-1.6-1.9-2.6c-2.3-2.4-3.4-4.6-3.3-6.7s.8-3.9,2.3-5.5c1.3-1.5,2.8-2.8,4.5-4.1s3.3-2.6,4.8-4.1c.2-.2.4-.1.7.2,3.1,2.8,5.8,4.2,7.9,4.2s3.5-.6,4.1-1.9c.6-1.3.6-2.6-.2-4s-2-2.5-3.7-3.5c-2.6-1.3-5.4-1.4-8.4-.4-.6.2-1,.1-1.1-.4s.2-.8.9-.9ZM199.5,32.9c.3.2.5.2.8,0l6.5-6.4c.2-.2.3-.5.2-.7s-.3-.3-.5-.3c-1.3-.1-2.8-.7-4.4-1.5-2.6-1.5-4.3-2.5-5.1-3s-1.8,0-3.1,1.4c-1.6,1.9-1.6,3.6,0,5.3s3.4,3.4,5.6,5.2ZM194.7,40.3c-.2.4-.2.7.2.9,1.7.8,3.3,1.5,5,2.3s3.3,1.5,5,2.2c1.2.5,2.3-.2,3.5-2,1.5-2.3-.5-5.4-5.8-9.1-.8-.5-1.8-.3-3,.7l-5,5.1ZM240.3,45.5c-.6.2-1,0-1.1-.5s.1-.9.9-1.2c1.3-.5,2.6-1.3,3.9-2.2s2.8-2.4,4.4-4.5,1.8-4.1.5-6.2-2.6-4.1-4-6.2c-1.2-1.8-2.1-3.6-2.7-5.6s-.5-3.9,0-5.6c1-3.6,3.1-6.5,6.3-8.6s7.3-3.3,12.2-3.3c10.8,0,16.2,4.8,16.1,14.4,0,4.5-1.9,7.7-5.6,9.8s-7.7,2-11.8,0c-.8-.4-1.1-.7-.9-1.2s.6-.5,1.2-.3c2.4,1,4.7.9,6.9-.4s3.4-3.6,3.6-7.2c.2-4.1-.5-7.4-2.3-9.7s-4.2-3.6-7.2-3.8c-3,0-5.4.8-7.2,2.4s-2.8,3.5-2.8,5.7.3,2.9.9,4.2,1.3,2.6,2.1,3.8c1.4,2.3,2.4,4.9,3.1,7.8s-1.4,6.3-6.3,10.1c-.2.2-.3.4-.3.6s.2.4.5.4c3.3,1.2,6.4,3,9.3,5.3,2.7,2.3,5.6,3.4,8.7,3.4s5.4-1.3,7-3.6c.4-.5.8-.7,1.2-.4s.5.7.2,1.2c-1.1,1.6-2.5,3.3-4.2,4.9s-3.5,2.8-5.7,3.6-4.6.9-7.3.4-5.7-2-8.9-4.7c-1.8-1.4-3.5-2.4-5.2-3s-3.5-.5-5.3.2ZM292.6,52.9c-.4.6-.8.6-1.3,0-2.6-3.2-6.5-5.6-11.7-7.2-.4-.1-.6-.3-.6-.6s.1-.4.4-.6c1.5-.5,2.2-2.1,2.2-4.7v-17.9c-.1-.3-.1-.5-.2-.6s0-.3,0-.4.2-.2.5-.2c6.2-.5,11.8-2.2,16.6-5.1.2-.1.4-.2.6-.1s.3.2.3.5c.4,2.5,1.6,5,3.7,7.5,1.1,1.4,2.1,3.3,2.9,5.8s1.1,4.5.9,6.1c-.2,1.9-.9,3.6-1.9,5.1s-2.2,2.9-3.4,4.2c-1.5,1.5-3.2,2.8-4.9,3.8s-3.1,2.6-4.1,4.6ZM288.8,21.4v20.2c.1.4.3.6.6.7l6.2,3.9c.6.4,1.2.3,1.7-.4,2.2-2.4,3.2-5.3,3-8.6,0-2.1-.5-3.9-1.2-5.6s-1.7-3.1-2.8-4.4c-1.8-1.9-3.2-4.1-4.2-6.9,0-.1-.2-.2-.3-.3s-.3,0-.5,0c-.7.3-1.4.5-2.1.7-.3,0-.4.3-.4.6ZM329.7,47.9c-1.7.8-3.7,1.6-6.1,2.6s-4.2,1.9-5.6,2.9c-.5.3-.8.5-1.1.4s-.3-.3-.2-.6c0-.4-.2-1.1-.5-2.1s-.8-1.9-1.4-2.7c-1.5-2.2-2.5-4.2-2.9-6s-.8-3.9-1.1-6.4c-.3-2.4.3-4.7,1.6-6.8s3.1-4,5.2-5.7c1.4-1,2.6-2.1,3.8-3.3s2.2-2.5,3.1-4.2c.4-.7.9-.8,1.6,0,3.5,4,7.3,6.4,11.2,7.2,1,.3,1.3.6.7,1.1-2.2,3.2-3.1,6.4-2.9,9.7s1,6.6,2.3,10h0s0,0,0,0c2.1,7.7,1.4,13.3-2.1,16.8s-7,5.4-10.5,5.7c-6,.6-10-1-11.9-4.6-.4-.8-.5-1.6,0-2.4s1.1-1.2,1.9-1.3c1.7-.3,3.1.8,4.4,3.2,1.7,3.5,4.3,4.6,7.6,3.2,2.9-1.2,4.5-3.3,4.9-6.2s0-6.3-1.3-10.1c0,0,0,0,0-.1h0c-.1-.4-.4-.5-.8-.3ZM331.7,28.3c-1.3-.5-2.9-1.4-4.7-2.5s-3.1-2.1-4-2.8h0c-.8-1.3-1.6-1.5-2.2-.4-2.5,3.7-3.5,7.8-3,12.3.4,3,1,5.7,1.9,8.2s2.4,4.1,4.4,4.9h0s0,0,0,0c1.3.4,3-.1,5.1-1.5.2-.1.3-.3.2-.7-1-2.7-1.4-5.4-1.1-8.2s1.4-5.6,3.6-8.5c.2-.4.1-.7-.2-.8ZM355.9,52.9c-.4.6-.8.6-1.3,0-2.6-3.2-6.5-5.6-11.7-7.2-.4-.1-.6-.3-.6-.6s.1-.4.4-.6c1.5-.5,2.2-2.1,2.2-4.7v-17.9c-.1-.3-.1-.5-.2-.6s0-.3,0-.4.2-.2.5-.2c6.2-.5,11.8-2.2,16.6-5.1.2-.1.4-.2.6-.1s.3.2.3.5c.4,2.5,1.6,5,3.7,7.5,1.1,1.4,2.1,3.3,2.9,5.8s1.1,4.5.9,6.1c-.2,1.9-.9,3.6-1.9,5.1s-2.2,2.9-3.4,4.2c-1.5,1.5-3.2,2.8-4.9,3.8s-3.1,2.6-4.1,4.6ZM352,21.4v20.2c.1.4.3.6.6.7l6.2,3.9c.6.4,1.2.3,1.7-.4,2.2-2.4,3.2-5.3,3-8.6,0-2.1-.5-3.9-1.2-5.6s-1.7-3.1-2.8-4.4c-1.8-1.9-3.2-4.1-4.2-6.9,0-.1-.2-.2-.3-.3s-.3,0-.5,0c-.7.3-1.4.5-2.1.7-.3,0-.4.3-.4.6Z"/>
    </g>
  </g>
</svg>