<?xml version="1.0" encoding="UTF-8"?>
<svg xmlns="http://www.w3.org/2000/svg" version="1.1" viewBox="0 0 392.7 49">
  <defs>
    <style>
      .cls-1 {
        fill: #fff;
      }
    </style>
  </defs>
  <!-- Generator: Adobe Illustrator 28.7.1, SVG Export Plug-In . SVG Version: 1.2.0 Build 142)  -->
  <g>
    <g id="Layer_1">
      <path class="cls-1" d="M7.1,0v40.4c0,.9.7,1.6,1.6,1.6h25.3c.9,0,1.6-.7,1.6-1.6v-5.4h7.1v5.4c0,.9-.7,1.6-1.6,1.6h-3.9c-.9,0-1.6.7-1.6,1.6v3.8c0,.9-.7,1.6-1.6,1.6H8.8c-.9,0-1.6-.7-1.6-1.6v-3.8c0-.9-.7-1.6-1.6-1.6H1.6c-.9,0-1.6-.7-1.6-1.6V0h7.1ZM57.1,47.4v-3.8c0-.9-.7-1.6-1.6-1.6h-3.9c-.9,0-1.6-.7-1.6-1.6V8.6c0-.9.7-1.6,1.6-1.6h3.9c.9,0,1.6-.7,1.6-1.6V1.6c0-.9.7-1.6,1.6-1.6h25.3c.9,0,1.6.7,1.6,1.6v3.8c0,.9.7,1.6,1.6,1.6h3.9c.9,0,1.6.7,1.6,1.6v31.8c0,.9-.7,1.6-1.6,1.6h-3.9c-.9,0-1.6.7-1.6,1.6v3.8c0,.9-.7,1.6-1.6,1.6h-25.3c-.9,0-1.6-.7-1.6-1.6ZM58.7,42h25.3c.9,0,1.6-.7,1.6-1.6V8.6c0-.9-.7-1.6-1.6-1.6h-25.3c-.9,0-1.6.7-1.6,1.6v31.8c0,.9.7,1.6,1.6,1.6ZM134.1,49h-25.3c-.9,0-1.6-.7-1.6-1.6v-3.8c0-.9-.7-1.6-1.6-1.6h-3.9c-.9,0-1.6-.7-1.6-1.6V8.6c0-.9.7-1.6,1.6-1.6h3.9c.9,0,1.6-.7,1.6-1.6V1.6c0-.9.7-1.6,1.6-1.6h25.3c.9,0,1.6.7,1.6,1.6v3.8c0,.9.7,1.6,1.6,1.6h3.9c.9,0,1.6.7,1.6,1.6v5.4h-7.1v-5.4c0-.9-.7-1.6-1.6-1.6h-25.3c-.9,0-1.6.7-1.6,1.6v31.8c0,.9.7,1.6,1.6,1.6h25.3c.9,0,1.6-.7,1.6-1.6v-10.8c0-.9-.7-1.6-1.6-1.6h-12.7v-7h12.7c.9,0,1.6.7,1.6,1.6v3.8c0,.9.7,1.6,1.6,1.6h3.9c.9,0,1.6.7,1.6,1.6v10.8c0,.9-.7,1.6-1.6,1.6h-3.9c-.9,0-1.6.7-1.6,1.6v3.8c0,.9-.7,1.6-1.6,1.6ZM157.1,47.4v-3.8c0-.9-.7-1.6-1.6-1.6h-3.9c-.9,0-1.6-.7-1.6-1.6V8.6c0-.9.7-1.6,1.6-1.6h3.9c.9,0,1.6-.7,1.6-1.6V1.6c0-.9.7-1.6,1.6-1.6h25.3c.9,0,1.6.7,1.6,1.6v3.8c0,.9.7,1.6,1.6,1.6h3.9c.9,0,1.6.7,1.6,1.6v31.8c0,.9-.7,1.6-1.6,1.6h-3.9c-.9,0-1.6.7-1.6,1.6v3.8c0,.9-.7,1.6-1.6,1.6h-25.3c-.9,0-1.6-.7-1.6-1.6ZM158.7,42h25.3c.9,0,1.6-.7,1.6-1.6V8.6c0-.9-.7-1.6-1.6-1.6h-25.3c-.9,0-1.6.7-1.6,1.6v31.8c0,.9.7,1.6,1.6,1.6ZM217.8,8.6c0-.9-.7-1.6-1.6-1.6h-16.2V0h16.2c.9,0,1.6.7,1.6,1.6v3.8c0,.9.7,1.6,1.6,1.6h3.9c.9,0,1.6-.7,1.6-1.6V1.6c0-.9.7-1.6,1.6-1.6h16.2v7h-16.2c-.9,0-1.6.7-1.6,1.6v40.4h-7.1V8.6ZM267.7,22.6v3.8c0,.9.7,1.6,1.6,1.6h3.9c.9,0,1.6.7,1.6,1.6v19.4h-7.1v-19.4c0-.9-.7-1.6-1.6-1.6h-7.5c-.9,0-1.6-.7-1.6-1.6v-3.8c0-.9-.7-1.6-1.6-1.6h-3.9c-.9,0-1.6-.7-1.6-1.6V0h7.1v19.4c0,.9.7,1.6,1.6,1.6h7.5c.9,0,1.6.7,1.6,1.6ZM274.9,21h9.1c.9,0,1.6-.7,1.6-1.6V0h7.1v19.4c0,.9-.7,1.6-1.6,1.6h-3.9c-.9,0-1.6.7-1.6,1.6v3.8c0,.9-.7,1.6-1.6,1.6h-9.1v-7ZM334,28h-19.9v-7h19.9c.9,0,1.6-.7,1.6-1.6v-10.8c0-.9-.7-1.6-1.6-1.6h-25.3c-.9,0-1.6.7-1.6,1.6v40.4h-7.1V8.6c0-.9.7-1.6,1.6-1.6h3.9c.9,0,1.6-.7,1.6-1.6V1.6c0-.9.7-1.6,1.6-1.6h25.3c.9,0,1.6.7,1.6,1.6v3.8c0,.9.7,1.6,1.6,1.6h3.9c.9,0,1.6.7,1.6,1.6v10.8c0,.9-.7,1.6-1.6,1.6h-3.9c-.9,0-1.6.7-1.6,1.6v3.8c0,.9-.7,1.6-1.6,1.6ZM358.6,0h25.3c.9,0,1.6.7,1.6,1.6v3.8c0,.9.7,1.6,1.6,1.6h3.9c.9,0,1.6.7,1.6,1.6v5.4h-7.1v-5.4c0-.9-.7-1.6-1.6-1.6h-25.3c-.9,0-1.6.7-1.6,1.6v10.8c0,.9.7,1.6,1.6,1.6h19.8v7h-19.8c-.9,0-1.6.7-1.6,1.6v10.8c0,.9.7,1.6,1.6,1.6h25.3c.9,0,1.6-.7,1.6-1.6v-5.4h7.1v5.4c0,.9-.7,1.6-1.6,1.6h-3.9c-.9,0-1.6.7-1.6,1.6v3.8c0,.9-.7,1.6-1.6,1.6h-25.3c-.9,0-1.6-.7-1.6-1.6v-3.8c0-.9-.7-1.6-1.6-1.6h-3.9c-.9,0-1.6-.7-1.6-1.6v-10.8c0-.9.7-1.6,1.6-1.6h3.9c.9,0,1.6-.7,1.6-1.6v-3.8c0-.9-.7-1.6-1.6-1.6h-3.9c-.9,0-1.6-.7-1.6-1.6v-10.8c0-.9.7-1.6,1.6-1.6h3.9c.9,0,1.6-.7,1.6-1.6V1.6c0-.9.7-1.6,1.6-1.6Z"/>
    </g>
  </g>
</svg>