<?xml version="1.0" encoding="UTF-8"?>
<svg xmlns="http://www.w3.org/2000/svg" version="1.1" viewBox="0 0 300 216">
  <defs>
    <style>
      .cls-1 {
        fill: #fff;
      }
    </style>
  </defs>
  <!-- Generator: Adobe Illustrator 28.7.1, SVG Export Plug-In . SVG Version: 1.2.0 Build 142)  -->
  <g>
    <g id="Layer_1">
      <path class="cls-1" d="M138.5,77c-.2.3-.2.4-.3.6,0,0,0-8.5,0-10.1s.6-6.7,3.9-7c1.6-.1,5.2-.4,5.2,6.4v3.7c0,1.8-.4,2.2-1.4,2.4-.7.1-1.9.4-3.2.9-1.7.7-2.9,1.2-4.2,3.2ZM121.9,110.1c-4.9,0-8.8,4.3-8.8,9.6v32.6c0,5.3,3.9,9.5,8.8,9.5s8.8-4.2,8.8-9.5v-32.6c0-5.3-3.9-9.6-8.8-9.6ZM220.2,110.1c-4.9,0-8.8,4.3-8.8,9.6v32.6c0,5.3,3.9,9.5,8.8,9.5s8.8-4.2,8.8-9.5v-32.6c0-5.3-3.9-9.6-8.8-9.6ZM300,108c0,59.6-67.2,108-150,108S0,167.6,0,108,67.2,0,150,0s150,48.4,150,108ZM230.1,89.8c13.1,0,12.4-6.2,12.4-10.8s-10.7-5.7-10.7-5.7h-1.3c-.9,0-4.3.2-4.3-1.8v-6.8c0-2.6,1.8-4.1,4.3-4.2,2.5-.1,5.3.8,6,2.6.4,1.1.1,1.5-.8,2.6-1.8,2.1-1.3,5.5,1.3,6.6,2.5,1.1,5.5,0,5.5-4s-2.2-9-11.7-9-6.6-.4-10.1,3.1c-.3.3-.6.7-.9,1.1-1.1,1.6-1.3,2.4-1.3,5.8,0,5.8,9,5.8,10.5,5.7.2,0,.3,0,.5,0h1c.9,0,4.3-.1,4.3,1.9v8c0,3-1.3,3.9-4.1,3.9s-4.5-2.1-4.5-5.4v-6.4h-5.1c-1.5,0-2.7.5-2.7,2.6v3.6s-.3,6.9,11.6,6.9ZM206.9,50.8c0,.2,0,.3,0,.5,0,2.2,4.2,1.6,4.2,4.2,0,1.1,0,3.1-4.2,3.1v.8c0,.5.4.9.9.9h2c3.7,0,4.9-3.8,4.9-5.8v-10.2h-4.4c-1.9,0-3.5,1.1-3.5,3.1v3.3ZM186.9,60.8c0,.2.3.5.6.5,1.6.2,1.8,1.2,1.8,1.7v.2h0v21c0,4.8,1.8,4.8,4,4.8h7.5v-.5c0-.2-.3-.5-.6-.5-2-.3-1.8-1.9-1.8-1.9v-23.1c0-.5.2-1.6,1.6-1.6h5.2c.4,0,.6-.3.6-.5v-.8h-7.4v-16.4h-5.1c-2.2,0-3.9,1.7-3.9,3.9v12.5h-2.4v.8ZM158.5,84.2c0,4.8,1.8,4.8,4,4.8h7.5v-.5c0-.2-.3-.5-.6-.5-2-.3-1.8-1.9-1.8-1.9v-14.7c0-1.4,0-2.8.3-3.9.3-1.4,1.4-3.3,2.7-4,1.3-.7,3-.6,4.1.4.4.4.8,1,1,1.6.5,1.4.6,5,.6,6.5v14.4c0,1.4,1.8,2.5,3.9,2.5h7.4v-.5c0-.2-.3-.5-.6-.5-2-.3-1.8-1.9-1.8-1.9v-14c0-3-.1-3.3-.5-5.2-.3-1.9-1-3.8-2.3-5.3-1.8-1.9-4.7-2.7-7.4-2.3-2.7.4-5.2,2-6.7,4.1-.2.3-.4.6-.6.9v-4.2h-5.1c-2.2,0-3.9,1.8-3.9,3.9v20.2ZM128.6,74.4c0,8.7,5.7,15.4,13.9,15.4,12.9,0,12.5-9,12.5-9v-1.3c0-2.4-1.3-3-2.9-3h-4.6v4.7c0,5.2-1.5,7.4-5,7.4s-4.2-2-4.3-5.6v-1.7c0-6.3,10-6.6,11.3-6.6s1.3,0,1.5,0c4.9,0,4.1-1.7,4.1-5.6s-1-9.8-12.5-9.8-14,6.7-14,15.3ZM125.2,86v-26h-5c-2.2,0-3.9,1.8-3.9,3.9v22.5c0,1.4,1.8,2.5,3.9,2.5h7.4v-.5c0-.2-.3-.5-.6-.5-2-.3-1.8-1.9-1.8-1.9ZM116.3,52.2c0,2.5,2,4.5,4.5,4.5s4.5-2,4.5-4.5-2-4.5-4.5-4.5-4.5,2-4.5,4.5ZM101.2,84.2c0,4.8,1.8,4.8,4,4.8h7.5v-.5c0-.2-.3-.5-.6-.5-2-.3-1.8-1.9-1.8-1.9v-42.5h-5.1c-2.2,0-3.9,1.6-3.9,3.7v36.8ZM97.4,145.1h-7c-3.5,0-5.5,2.2-5.5,4.7v1.1c0,.4,0,.3,0,.7,0,2.8,2.3,3.5,2.3,5.5,0,2.1-2.2,3.6-7.1,3.5-5.3-.1-5.6-2.5-5.6-12.3v-39.7h-9.2c-2.6,0-4.7,2.1-4.7,4.7v46.2s.2,2-2.1,2.3c-.4,0-.8.3-.8.6v.5h33.4c3.5,0,6.3-2.9,6.3-6.5v-11.4ZM90.1,50c-.1,1.2-1,2-1.4,2.5-1.7,1.8-2.9,5.8-.4,8.3,1.9,1.9,5.6,2.8,8,.7,2-1.8,1.7-4.7,1.7-5,0,0,.5-13.7-18.5-13.7s-21.1,10.3-21.1,23.5,9,23.5,21.1,23.5c19,0,18.5-13.7,18.5-13.7v-2.1c0-3.7-1.9-4.6-4.3-4.6h-6.3v7.2c0,7.8-2.7,11.1-7.4,11.1-4.3,0-9.2-2.7-9.2-8.2v-26.1c0-5.5,4.9-8.6,9.2-8.7,4.9-.2,8.6,1.4,9.8,3.8.3.5.4,1,.3,1.4ZM144.6,128.8c0-9.6-4.1-18.2-13.5-20.3-2.6-.6-5.7-.9-9.2-.9s-6.6.3-9.2.9c-9.4,2.1-13.5,10.6-13.5,20.3v14c0,9.6,4.1,18.2,13.5,20.3,2.6.6,5.7.9,9.2.9s6.6-.3,9.2-.9c9.4-2.1,13.5-10.6,13.5-20.3v-14ZM194.5,145.2v-2.9c-.1-3.5-3-6.3-6.6-6.3h-18.7c0,0,0,6.2,0,6.2,0,3.5,2.3,5.6,5.9,5.6h1.6c3,0,2.1-2.3,6.7-2.1,3.1.1,3.9,1.9,3.4,6.7-.4,3.9-6.1,9.1-13.3,9.1s-11.6-3.5-11.6-10.1v-31.3c0-6.6,4.9-10,10-10.1,5.9-.2,10.6,1.7,12.1,4.6,1,1.9-.1,3.8-1,4.7-2.1,2.2-3.6,6.9-.5,9.9,2.3,2.3,6.8,3.1,9.6.6,2.3-2.1,2.4-5.9,2.4-5.9,0-1.1-.4-16.4-22-16.4s-25.3,12.4-25.3,28.2,10.7,28.1,25.3,28.1c22.8,0,22.2-18.8,22.2-18.8ZM242.9,128.8c0-9.6-4.1-18.2-13.5-20.3-2.6-.6-5.7-.9-9.2-.9s-6.6.3-9.2.9c-9.4,2.1-13.5,10.6-13.5,20.3v14c0,9.6,4.1,18.2,13.5,20.3,2.6.6,5.7.9,9.2.9s6.6-.3,9.2-.9c9.4-2.1,13.5-10.6,13.5-20.3v-14Z"/>
    </g>
  </g>
</svg>