<?xml version="1.0" encoding="UTF-8"?>
<svg xmlns="http://www.w3.org/2000/svg" version="1.1" viewBox="0 0 375.9 28.9">
  <defs>
    <style>
      .cls-1 {
        fill: #fff;
      }
    </style>
  </defs>
  <!-- Generator: Adobe Illustrator 28.7.1, SVG Export Plug-In . SVG Version: 1.2.0 Build 142)  -->
  <g>
    <g id="Layer_1">
      <path class="cls-1" d="M0,28.9V0h6.1v22.8h27.8v-4.7h6.1v10.8H0ZM54.6,28.9l-6.6-6.6V0h33.3l6.6,6.7v22.2h-33.3ZM81.8,9.2l-3.1-3.1h-24.7v13.6l3.1,3.1h24.6v-13.6ZM102.6,28.9l-6.6-6.7V0h33.3l6.7,6.7v5.9h-6.1v-3.4l-3.1-3.1h-24.6v13.6l3.1,3.1h22.1l-4.7-4.7h-11.6v-6.1h14.2l10.8,10.8v6.1h-33.4ZM150.6,28.9l-6.6-6.6V0h33.3l6.6,6.7v22.2h-33.3ZM177.8,9.2l-3.1-3.1h-24.7v13.6l3.1,3.1h24.6v-13.6ZM208.9,28.9V6.1h-10.8v2.4h-6.1V0h40v8.6h-6.1v-2.4h-10.8v22.8h-6.1ZM246.6,28.9l-6.7-6.7v-6h6.1v3.4l3.1,3.1h24.7v-7.5h-27.2l-6.7-6.7V0h6.1v6.1l3.1,3.1h24.7V0h6.1v28.9h-33.3ZM287.9,28.9V8.6h6.1v4.6h24.7l3.1-3.1v-.9l-3.1-3.1h-30.8V0h33.3l6.7,6.7v6l-6.7,6.6h-27.2v9.6h-6.1ZM335.9,6.1V0h40v6.1h-40ZM335.9,28.9V8.6h6.1v3.4h16.7v6.1h-16.7v4.7h33.9v6.1h-40Z"/>
    </g>
  </g>
</svg>