<svg xmlns="http://www.w3.org/2000/svg" viewBox="0 0 320 340" role="img"
     aria-label="Abstract geometric skyline representing Bangalore">
<rect width="320" height="340" rx="14" fill="#141A1F"/>
<g opacity=".5" stroke="#2C3843" stroke-width="1">
<path d="M0 80h320M0 140h320M0 200h320M0 260h320"/></g>
<path d="M138 300V128h40v172z" fill="#D6382B"/><path d="M136 128h44v-12h-44z" fill="#D6382B"/><path d="M60 300v-52a26 26 0 0152 0v52z" fill="#F6F7F8" opacity=".92"/><path d="M190 300v-100h28v100zM226 300v-70h28v70zM262 300v-44h28v44zM26 300v-36h26v36z" fill="#F6F7F8" opacity=".92"/>
<path d="M0 300h320v40H0z" fill="#1E262E"/>
<text x="160" y="326" text-anchor="middle" font-family="monospace" font-size="13"
      fill="#7A8894" letter-spacing="2.4">BANGALORE</text>
</svg>